<!-- <svg xmlns="http://www.w3.org/2000/svg" width="1em" height="1em" viewBox="0 0 24 24"><g fill="none" stroke="#8d5d40" stroke-width="1.5"><circle cx="12" cy="13" r="3"/><path stroke-linecap="round" d="M2 13.364c0-3.065 0-4.597.749-5.697a4.38 4.38 0 0 1 1.226-1.204c.72-.473 1.622-.642 3.003-.702c.659 0 1.226-.49 1.355-1.125A2.064 2.064 0 0 1 10.366 3h3.268c.988 0 1.839.685 2.033 1.636c.129.635.696 1.125 1.355 1.125c1.38.06 2.282.23 3.003.702c.485.318.902.727 1.226 1.204c.749 1.1.749 2.632.749 5.697c0 3.064 0 4.596-.749 5.697a4.408 4.408 0 0 1-1.226 1.204C18.904 21 17.343 21 14.222 21H9.778c-3.121 0-4.682 0-5.803-.735A4.406 4.406 0 0 1 2.75 19.06A3.43 3.43 0 0 1 2.277 18M19 10h-1"/></g></svg>
 -->

 <svg fill="#24503B" height="200px" width="200px" version="1.1" id="Layer_1" xmlns="http://www.w3.org/2000/svg" xmlns:xlink="http://www.w3.org/1999/xlink" viewBox="0 0 512 512" xml:space="preserve"><g id="SVGRepo_bgCarrier" stroke-width="0"></g><g id="SVGRepo_tracerCarrier" stroke-linecap="round" stroke-linejoin="round"></g><g id="SVGRepo_iconCarrier"> <g> <g> <path d="M461.913,22.261H243.246c-19.094,0-36.261,10.61-44.8,27.688l-19.547,39.095H139.13V38.957 c0-9.22-7.475-16.696-16.696-16.696H50.087c-9.22,0-16.696,7.475-16.696,16.696v52.959C13.959,98.807,0,117.365,0,139.13v300.522 c0,27.618,22.469,50.087,50.087,50.087h411.826c27.618,0,50.087-22.469,50.087-50.087V72.348 C512,44.73,489.531,22.261,461.913,22.261z M66.783,55.652h38.957v33.391H66.783V55.652z M478.609,439.652 c0,9.206-7.49,16.696-16.696,16.696H50.087c-9.206,0-16.696-7.49-16.696-16.696V256h117.031 c-7.235,15.19-11.292,32.173-11.292,50.087c0,64.442,52.428,116.87,116.87,116.87s116.87-52.428,116.87-116.87 c0-17.914-4.057-34.897-11.292-50.087h117.031V439.652z M172.522,306.087c0-46.03,37.448-83.478,83.478-83.478 s83.478,37.448,83.478,83.478c0,46.03-37.448,83.478-83.478,83.478S172.522,352.117,172.522,306.087z M478.609,222.609H337.702 c-21.088-20.643-49.931-33.391-81.702-33.391c-31.771,0-60.614,12.749-81.702,33.391H33.391V139.13 c0-9.206,7.49-16.696,16.696-16.696c4.486,0,133.766,0,139.13,0c6.324,0,12.104-3.573,14.934-9.229l24.162-48.324 c2.846-5.692,8.568-9.229,14.934-9.229h218.666c9.206,0,16.696,7.49,16.696,16.696V222.609z"></path> </g> </g> <g> <g> <path d="M256,256c-27.618,0-50.087,22.469-50.087,50.087c0,27.618,22.469,50.087,50.087,50.087 c27.618,0,50.087-22.469,50.087-50.087C306.087,278.469,283.618,256,256,256z M256,322.783c-9.206,0-16.696-7.49-16.696-16.696 c0-9.206,7.49-16.696,16.696-16.696c9.206,0,16.696,7.49,16.696,16.696C272.696,315.293,265.206,322.783,256,322.783z"></path> </g> </g> <g> <g> <path d="M428.522,89.043H322.783c-9.22,0-16.696,7.475-16.696,16.696v66.783c0,9.22,7.475,16.696,16.696,16.696h105.739 c9.22,0,16.696-7.475,16.696-16.696v-66.783C445.217,96.519,437.742,89.043,428.522,89.043z M411.826,155.826h-72.348v-33.391 h72.348V155.826z"></path> </g> </g> <g> <g> <circle cx="89.044" cy="172.522" r="16.696"></circle> </g> </g> <g> <g> <path d="M189.217,155.826h-33.391c-9.22,0-16.696,7.475-16.696,16.696s7.475,16.696,16.696,16.696h33.391 c9.22,0,16.696-7.475,16.696-16.696S198.438,155.826,189.217,155.826z"></path> </g> </g> </g></svg>